# This file uses centimeters as units for non-parametric coordinates.

mtllib Trangle.mtl
g default
v -0.387441 -0.056263 -0.149049
v -0.385234 -0.066421 0.163647
v -0.386731 0.073905 -0.144826
v -0.384523 0.063748 0.167870
v 0.601312 -0.066502 0.000160
v 0.602022 0.063666 0.004383
vt 0.451716 0.007647
vt 0.408159 0.029841
vt 0.437500 0.312500
vt 0.450000 0.312500
vt 0.437506 0.688435
vt 0.449995 0.688434
vt 0.408206 0.970174
vt 0.451675 0.992323
vt 0.500000 0.150000
vt 0.499986 0.837529
vt 0.000000 0.000000
vt 1.000000 0.000000
vt 0.999955 1.657571
vt 0.000050 1.657575
vt 0.000000 0.000000
vt 1.000000 0.000000
vt 0.999950 2.008332
vt 0.000075 2.008307
vn -0.999960 0.005225 0.007228
vn -0.999960 0.005225 0.007228
vn -0.999960 0.005225 0.007228
vn -0.999960 0.005225 0.007228
vn -0.005456 -0.999459 -0.032428
vn -0.005456 -0.999459 -0.032428
vn -0.005456 -0.999459 -0.032428
vn 0.005456 0.999459 0.032428
vn 0.005456 0.999459 0.032428
vn 0.005456 0.999459 0.032428
vn 0.163396 -0.032884 0.986012
vn 0.163396 -0.032884 0.986012
vn 0.163396 -0.032884 0.986012
vn 0.163396 -0.032884 0.986012
vn 0.149461 0.031250 -0.988274
vn 0.149461 0.031250 -0.988274
vn 0.149461 0.031250 -0.988274
vn 0.149461 0.031250 -0.988274
s off
g pCylinder1
usemtl initialShadingGroup
f 1/3/1 2/4/2 4/6/3 3/5/4
f 2/2/5 1/1/6 5/9/7
f 3/8/8 4/7/9 6/10/10
f 2/11/11 5/12/12 6/13/13 4/14/14
f 5/15/15 1/16/16 3/17/17 6/18/18
